<mxfile host="Electron" agent="Mozilla/5.0 (X11; Linux x86_64) AppleWebKit/537.36 (KHTML, like Gecko) draw.io/25.0.2 Chrome/128.0.6613.186 Electron/32.2.5 Safari/537.36" version="25.0.2">
  <diagram name="Page-1" id="QsD2uDJoAuZ09hIpEIok">
    <mxGraphModel dx="1109" dy="-430" grid="1" gridSize="10" guides="1" tooltips="1" connect="1" arrows="1" fold="1" page="1" pageScale="1" pageWidth="850" pageHeight="1100" math="0" shadow="0">
      <root>
        <mxCell id="0" />
        <mxCell id="1" parent="0" />
        <mxCell id="G5B0Zsf1mxl7U3FmbSPc-42" value="&lt;div&gt;&amp;lt;&amp;lt;metaclass&amp;gt;&amp;gt;&lt;/div&gt;&lt;b&gt;ExpandableEnumType&lt;/b&gt;&lt;div&gt;-----------------------------------&lt;/div&gt;&lt;div style=&quot;text-align: left;&quot;&gt;&lt;b style=&quot;background-color: initial;&quot;&gt;Operations:&lt;/b&gt;&lt;br&gt;&lt;/div&gt;&lt;div style=&quot;text-align: left;&quot;&gt;+ __new__()&lt;/div&gt;&lt;div style=&quot;text-align: left;&quot;&gt;+ __setattr__()&lt;/div&gt;&lt;div style=&quot;text-align: left;&quot;&gt;+ __repr__()&lt;/div&gt;" style="html=1;whiteSpace=wrap;verticalAlign=top;" parent="1" vertex="1">
          <mxGeometry x="120" y="1515" width="150" height="110" as="geometry" />
        </mxCell>
        <mxCell id="G5B0Zsf1mxl7U3FmbSPc-48" value="&lt;b&gt;Expanen&lt;/b&gt;" style="rounded=0;whiteSpace=wrap;html=1;fontStyle=1" parent="1" vertex="1">
          <mxGeometry x="330" y="1550" width="150" height="40" as="geometry" />
        </mxCell>
        <mxCell id="G5B0Zsf1mxl7U3FmbSPc-50" value="UserDefinedEnumType1" style="rounded=0;whiteSpace=wrap;html=1;fontStyle=1" parent="1" vertex="1">
          <mxGeometry x="330" y="1630" width="150" height="40" as="geometry" />
        </mxCell>
        <mxCell id="G5B0Zsf1mxl7U3FmbSPc-54" value="" style="endArrow=block;endSize=16;endFill=0;html=1;rounded=0;exitX=0.5;exitY=0;exitDx=0;exitDy=0;entryX=0.5;entryY=1;entryDx=0;entryDy=0;" parent="1" source="G5B0Zsf1mxl7U3FmbSPc-50" target="G5B0Zsf1mxl7U3FmbSPc-48" edge="1">
          <mxGeometry x="-0.3333" width="160" relative="1" as="geometry">
            <mxPoint x="360" y="1375" as="sourcePoint" />
            <mxPoint x="520" y="1375" as="targetPoint" />
            <mxPoint as="offset" />
          </mxGeometry>
        </mxCell>
        <mxCell id="G5B0Zsf1mxl7U3FmbSPc-55" value="UserDefinedEnumType2" style="rounded=0;whiteSpace=wrap;html=1;fontStyle=1" parent="1" vertex="1">
          <mxGeometry x="330" y="1710" width="150" height="40" as="geometry" />
        </mxCell>
        <mxCell id="G5B0Zsf1mxl7U3FmbSPc-57" value="" style="endArrow=block;endSize=16;endFill=0;html=1;rounded=0;exitX=0.5;exitY=0;exitDx=0;exitDy=0;entryX=0.5;entryY=1;entryDx=0;entryDy=0;" parent="1" source="G5B0Zsf1mxl7U3FmbSPc-55" target="G5B0Zsf1mxl7U3FmbSPc-50" edge="1">
          <mxGeometry x="-0.3333" width="160" relative="1" as="geometry">
            <mxPoint x="360" y="1475" as="sourcePoint" />
            <mxPoint x="405" y="1525" as="targetPoint" />
            <mxPoint as="offset" />
          </mxGeometry>
        </mxCell>
        <mxCell id="G5B0Zsf1mxl7U3FmbSPc-59" value="&lt;div&gt;&lt;b style=&quot;background-color: initial;&quot;&gt;ExpanenField&lt;/b&gt;&lt;br&gt;&lt;/div&gt;&lt;div&gt;&lt;div&gt;-----------------------------------&lt;/div&gt;&lt;div style=&quot;text-align: left;&quot;&gt;&lt;b&gt;Operations:&lt;/b&gt;&lt;/div&gt;&lt;div style=&quot;text-align: left;&quot;&gt;+ __str__(): str&lt;/div&gt;&lt;div&gt;-----------------------------------&lt;/div&gt;&lt;div style=&quot;text-align: left;&quot;&gt;&lt;b style=&quot;background-color: initial;&quot;&gt;Attributes:&lt;/b&gt;&lt;br&gt;&lt;/div&gt;&lt;div style=&quot;text-align: left;&quot;&gt;+ name: str&lt;/div&gt;&lt;div style=&quot;text-align: left;&quot;&gt;+ value: any&lt;/div&gt;&lt;/div&gt;" style="html=1;whiteSpace=wrap;verticalAlign=top;" parent="1" vertex="1">
          <mxGeometry x="330" y="1350" width="150" height="140" as="geometry" />
        </mxCell>
        <mxCell id="bcYw5_hHK_UjAu5idPiE-1" value="Use" style="endArrow=open;endSize=12;dashed=1;html=1;rounded=0;exitX=0;exitY=0.5;exitDx=0;exitDy=0;entryX=1;entryY=0.5;entryDx=0;entryDy=0;" edge="1" parent="1" source="G5B0Zsf1mxl7U3FmbSPc-48" target="G5B0Zsf1mxl7U3FmbSPc-42">
          <mxGeometry width="160" relative="1" as="geometry">
            <mxPoint x="430" y="1340" as="sourcePoint" />
            <mxPoint x="240" y="1520" as="targetPoint" />
          </mxGeometry>
        </mxCell>
        <mxCell id="bcYw5_hHK_UjAu5idPiE-2" value="" style="endArrow=block;endSize=16;endFill=0;html=1;rounded=0;exitX=0.5;exitY=0;exitDx=0;exitDy=0;entryX=0.5;entryY=1;entryDx=0;entryDy=0;" edge="1" parent="1" source="G5B0Zsf1mxl7U3FmbSPc-48" target="G5B0Zsf1mxl7U3FmbSPc-59">
          <mxGeometry x="-0.3333" width="160" relative="1" as="geometry">
            <mxPoint x="415" y="1620" as="sourcePoint" />
            <mxPoint x="415" y="1550" as="targetPoint" />
            <mxPoint as="offset" />
          </mxGeometry>
        </mxCell>
        <mxCell id="bcYw5_hHK_UjAu5idPiE-3" value="UserDefinedFieldType1" style="rounded=0;whiteSpace=wrap;html=1;fontStyle=1" vertex="1" parent="1">
          <mxGeometry x="530" y="1630" width="150" height="40" as="geometry" />
        </mxCell>
        <mxCell id="bcYw5_hHK_UjAu5idPiE-4" value="" style="endArrow=block;endSize=16;endFill=0;html=1;rounded=0;exitX=1;exitY=0.5;exitDx=0;exitDy=0;entryX=0;entryY=0.5;entryDx=0;entryDy=0;" edge="1" parent="1" source="G5B0Zsf1mxl7U3FmbSPc-50" target="bcYw5_hHK_UjAu5idPiE-3">
          <mxGeometry x="-0.25" width="160" relative="1" as="geometry">
            <mxPoint x="400" y="1460" as="sourcePoint" />
            <mxPoint x="560" y="1460" as="targetPoint" />
            <mxPoint as="offset" />
          </mxGeometry>
        </mxCell>
        <mxCell id="bcYw5_hHK_UjAu5idPiE-5" value="UserDefinedFieldType2" style="rounded=0;whiteSpace=wrap;html=1;fontStyle=1" vertex="1" parent="1">
          <mxGeometry x="530" y="1710" width="150" height="40" as="geometry" />
        </mxCell>
        <mxCell id="bcYw5_hHK_UjAu5idPiE-6" value="" style="endArrow=block;endSize=16;endFill=0;html=1;rounded=0;exitX=1;exitY=0.5;exitDx=0;exitDy=0;entryX=0;entryY=0.5;entryDx=0;entryDy=0;" edge="1" parent="1" target="bcYw5_hHK_UjAu5idPiE-5">
          <mxGeometry x="-0.25" width="160" relative="1" as="geometry">
            <mxPoint x="480" y="1730" as="sourcePoint" />
            <mxPoint x="560" y="1560" as="targetPoint" />
            <mxPoint as="offset" />
          </mxGeometry>
        </mxCell>
        <mxCell id="bcYw5_hHK_UjAu5idPiE-7" value="Optional" style="rounded=0;whiteSpace=wrap;html=1;fillColor=none;dashed=1;align=left;verticalAlign=top;fontStyle=1" vertex="1" parent="1">
          <mxGeometry x="500" y="1600" width="190" height="160" as="geometry" />
        </mxCell>
        <mxCell id="bcYw5_hHK_UjAu5idPiE-8" value="application" style="rounded=0;whiteSpace=wrap;html=1;fontStyle=1" vertex="1" parent="1">
          <mxGeometry x="330" y="1800" width="150" height="40" as="geometry" />
        </mxCell>
        <mxCell id="bcYw5_hHK_UjAu5idPiE-9" value="Use" style="endArrow=open;endSize=12;dashed=1;html=1;rounded=0;exitX=0.5;exitY=0;exitDx=0;exitDy=0;entryX=0.5;entryY=1;entryDx=0;entryDy=0;" edge="1" parent="1" source="bcYw5_hHK_UjAu5idPiE-8" target="G5B0Zsf1mxl7U3FmbSPc-55">
          <mxGeometry width="160" relative="1" as="geometry">
            <mxPoint x="340" y="1530" as="sourcePoint" />
            <mxPoint x="260" y="1530" as="targetPoint" />
          </mxGeometry>
        </mxCell>
        <mxCell id="bcYw5_hHK_UjAu5idPiE-10" value="ConflictingEnumField" style="rounded=0;whiteSpace=wrap;html=1;fontStyle=1" vertex="1" parent="1">
          <mxGeometry x="120" y="1430" width="150" height="40" as="geometry" />
        </mxCell>
        <mxCell id="bcYw5_hHK_UjAu5idPiE-11" value="Use" style="endArrow=open;endSize=12;dashed=1;html=1;rounded=0;exitX=0.5;exitY=0;exitDx=0;exitDy=0;entryX=0.5;entryY=1;entryDx=0;entryDy=0;" edge="1" parent="1" source="G5B0Zsf1mxl7U3FmbSPc-42" target="bcYw5_hHK_UjAu5idPiE-10">
          <mxGeometry width="160" relative="1" as="geometry">
            <mxPoint x="340" y="1580" as="sourcePoint" />
            <mxPoint x="280" y="1580" as="targetPoint" />
          </mxGeometry>
        </mxCell>
        <mxCell id="bcYw5_hHK_UjAu5idPiE-12" value="Exception" style="rounded=0;whiteSpace=wrap;html=1;fontStyle=1" vertex="1" parent="1">
          <mxGeometry x="120" y="1350" width="150" height="40" as="geometry" />
        </mxCell>
        <mxCell id="bcYw5_hHK_UjAu5idPiE-13" value="" style="endArrow=block;endSize=16;endFill=0;html=1;rounded=0;exitX=0.5;exitY=0;exitDx=0;exitDy=0;entryX=0.5;entryY=1;entryDx=0;entryDy=0;" edge="1" parent="1" source="bcYw5_hHK_UjAu5idPiE-10" target="bcYw5_hHK_UjAu5idPiE-12">
          <mxGeometry x="-0.3333" width="160" relative="1" as="geometry">
            <mxPoint x="415" y="1560" as="sourcePoint" />
            <mxPoint x="415" y="1500" as="targetPoint" />
            <mxPoint as="offset" />
          </mxGeometry>
        </mxCell>
      </root>
    </mxGraphModel>
  </diagram>
</mxfile>
